<?xml version="1.0" encoding="UTF-8"?>
<svg id="_Слой_1" data-name="Слой 1" xmlns="http://www.w3.org/2000/svg" viewBox="0 0 512 512">
  <path d="M449.83,391.43c27.09-38.94,42.32-84.64,42.32-135.43,0-45.71-13.54-88.03-35.55-123.58,0-1.69-1.69-1.69-1.69-3.39-42.32-66.02-115.11-110.04-199.76-110.04S96.03,63.02,55.4,130.73c0,1.69-1.69,1.69-1.69,3.39-22.01,35.55-33.86,77.87-33.86,123.58,0,50.79,15.24,96.49,42.32,135.43l1.69,1.69c40.63,59.25,111.73,98.19,191.29,98.19s148.97-38.94,192.98-98.19q0-1.69,1.69-3.39ZM424.44,366.04l-60.94,8.46-23.7-23.7,33.86-98.19,52.48-25.39,33.86,20.31v11.85c-1.69,37.24-13.54,76.18-35.55,106.65ZM422.75,142.58l-13.54,50.79-54.17,27.09-82.95-57.56v-66.02l57.56-28.78h0c38.94,15.24,71.1,40.63,93.11,74.49ZM178.98,68.09h0l59.25,28.78v66.02l-82.95,59.25-55.86-27.09-13.54-52.48c23.7-33.86,55.86-59.25,93.11-74.49ZM52.01,244.15l33.86-20.31,52.48,27.09,33.86,98.19-23.7,23.7-62.64-6.77c-22.01-32.16-33.86-69.41-33.86-110.04v-11.85ZM202.68,452.37h0l-28.78-57.56,20.31-20.31h121.89l20.31,20.31-28.78,57.56h0c-16.93,5.08-33.86,6.77-52.48,6.77s-35.55-3.39-52.48-6.77Z"/>
</svg>