<?xml version="1.0" encoding="UTF-8"?>
<svg id="_Слой_1" data-name="Слой 1" xmlns="http://www.w3.org/2000/svg" viewBox="0 0 512 512">
  <defs>
    <style>
      .cls-1 {
        fill: #ff415b;
      }

      .cls-2 {
        fill: #ffbeaa;
      }

      .cls-3 {
        fill: #e8ff43;
      }

      .cls-4 {
        fill: #fc0000;
      }

      .cls-5 {
        fill: #ffa68d;
      }

      .cls-6 {
        fill: #f7f700;
      }

      .cls-7 {
        fill: #e50058;
      }
    </style>
  </defs>
  <path class="cls-3" d="M206.02-.05v179.94c-.85-.02-1.69,0-2.52.04-21.48,1.14-47.46,22.01-47.46,44.53v97.54h-.02v29.95h-20l-30,.1v-.1H36.02V-.05h170Z"/>
  <path class="cls-2" d="M256,179.98v332.03h-99.98v-159.9l30-.1h20v-29.96h.03v-97.5c0-22.52,25.98-43.39,47.46-44.53.82-.04,1.65-.06,2.49-.04Z"/>
  <path class="cls-5" d="M425.9,191.63l-.35,195.41-64.53,124.97h-105.02V179.98c8.84.15,18.76,3.5,27.42,8.92.02,0,.04.02.06.04.01.01.01,0,.01,0,.58.37,1.15.74,1.71,1.12.46.32.93.64,1.39.97.46.33.91.66,1.36,1h.01c.73.55,1.46,1.13,2.16,1.72,1.42,1.17,2.77,2.41,4.05,3.69,3,3.01,5.58,6.31,7.56,9.81.34.6.66,1.2.96,1.81,0,0,.01,0,.01.01.45.91.86,1.83,1.23,2.77h.01c1.33,3.45,2.08,7.02,2.08,10.67v99.49h-.02v30h.02s60,.01,60,.01v-194l.1-35.29v4.19c31.46,5.97,55.91,33.02,59.78,64.72Z"/>
  <path class="cls-4" d="M279.92,186.85c1.18.64,2.35,1.33,3.5,2.05-8.66-5.42-18.58-8.77-27.42-8.92-.84-.02-1.67,0-2.49.04-21.48,1.14-47.46,22.01-47.46,44.53v97.5h-.03v-97.54c0-22.52,25.98-43.39,47.46-44.53.83-.04,1.67-.06,2.52-.04.41.01.82.02,1.23.05.58.02,1.16.07,1.74.12.34.03.67.07,1.01.11.33.04.67.08,1.01.13,1.02.14,2.04.32,3.06.54.36.07.73.15,1.09.24.62.14,1.24.3,1.87.47.31.09.62.18.93.27.3.08.6.17.89.27.64.19,1.28.4,1.92.63.62.22,1.25.45,1.87.69.53.2,1.07.42,1.6.64.75.32,1.49.65,2.23,1,.57.26,1.14.54,1.7.82.59.3,1.18.61,1.77.93Z"/>
  <rect class="cls-4" x="306" y="322" width=".02" height="30"/>
  <path class="cls-1" d="M256,0v179.94c-.85-.02-1.69,0-2.52.04-21.48,1.14-47.46,22.01-47.46,44.53v97.54h-.02v29.95h-20l-30,.1v-.1h-70V0h170Z"/>
  <path class="cls-7" d="M366.1,121.5v1.21l-.1,35.29v194h-59.98v-30h.03v-99.45c0-3.66-.75-7.25-2.11-10.7h-.01c-.36-.95-.77-1.87-1.23-2.78,0-.01-.01-.01-.01-.01-.3-.61-.62-1.21-.96-1.81-1.98-3.5-4.56-6.8-7.56-9.81-1.28-1.28-2.63-2.52-4.05-3.69-.7-.59-1.43-1.17-2.16-1.72h-.01c-.45-.34-.9-.67-1.36-1-.46-.33-.93-.66-1.39-.97-.57-.38-1.14-.76-1.71-1.12,0,0,0,.01-.01,0-.02-.02-.04-.03-.06-.04-1.15-.72-2.32-1.41-3.5-2.05-.58-.32-1.18-.63-1.77-.93-.56-.29-1.13-.56-1.7-.82-.74-.35-1.48-.68-2.23-1-.53-.22-1.07-.44-1.6-.64-.63-.24-1.25-.47-1.87-.69-.64-.23-1.28-.44-1.92-.63-.29-.1-.59-.19-.89-.27-.31-.09-.62-.18-.93-.27-.63-.17-1.25-.33-1.87-.47-.36-.09-.73-.17-1.09-.24-1.03-.22-2.05-.4-3.06-.54-.34-.05-.68-.09-1.01-.13-.34-.04-.67-.08-1.01-.11-.58-.05-1.16-.1-1.74-.12-.41-.03-.82-.04-1.23-.05V0h110l.1,121.5Z"/>
  <path class="cls-6" d="M279.92,186.85c1.18.64,2.35,1.33,3.5,2.05-8.66-5.42-18.58-8.77-27.42-8.92-.84-.02-1.67,0-2.49.04-21.48,1.14-47.46,22.01-47.46,44.53v97.5h-.03v-97.54c0-22.52,25.98-43.39,47.46-44.53.83-.04,1.67-.06,2.52-.04.41.01.82.02,1.23.05.58.02,1.16.07,1.74.12.34.03.67.07,1.01.11.33.04.67.08,1.01.13,1.02.14,2.04.32,3.06.54.36.07.73.15,1.09.24.62.14,1.24.3,1.87.47.31.09.62.18.93.27.3.08.6.17.89.27.64.19,1.28.4,1.92.63.62.22,1.25.45,1.87.69.53.2,1.07.42,1.6.64.75.32,1.49.65,2.23,1,.57.26,1.14.54,1.7.82.59.3,1.18.61,1.77.93Z"/>
  <rect class="cls-6" x="306" y="322" width=".02" height="30"/>
</svg>