<?xml version="1.0" encoding="UTF-8"?>
<svg id="_Слой_1" data-name="Слой 1" xmlns="http://www.w3.org/2000/svg" viewBox="0 0 512 512">
  <defs>
    <style>
      .cls-1 {
        fill: red;
      }

      .cls-2 {
        fill: #166d39;
      }
    </style>
  </defs>
  <path class="cls-1" d="M38.71,215.94c11.73-2.7,16.36,9.09,22.21,15.17,37.03,38.53,96.44,65.34,159.68,66.81,4.05.09,11.13.69,13.49-2.21,3.96-4.86-1.11-25.15,1.68-32.22,1.63-4.15,7.62-5.14,12.48-3.69l111.6,75.47c7.96,6.31.68,10.53-5.29,15-34.55,21.01-65.99,47.4-100.34,68.26-1.62.98-5.38,3.45-6.95,3.84-21.79,5.48-6.04-31.13-14.63-37.39-10.79-1.52-22.48-1.29-33.53-2.58-82.48-9.63-149.46-61.04-162.98-124.6-2.09-9.8-4.4-27.01-2.45-36.56.38-1.85,2.67-4.77,5.04-5.32Z"/>
  <path class="cls-2" d="M151.24,176.08c-6.72-6.13.58-10.18,6.11-14.38,34.52-21.19,66.08-47.1,100.34-68.26,4.96-3.06,12.17-7.19,17.29-1.68,3.97,4.27.45,24.67,1.6,31.45.26,1.54.87,2.93,2.7,3.78,2.97,1.37,20.61,1.22,25.95,1.73,70.74,6.73,131.49,41.94,158.4,92.94,10.26,19.45,17.92,47.33,14.7,68.29-.83,5.38-5.57,7.27-12.27,6.08-4.69-.83-11.61-11.57-15.07-15.16-36.83-38.32-95.79-65.09-158.65-66.77-5.93-.16-14.77-1.17-15.77,4.56-1.41,8.12,2.36,22.75-.43,29.84-1.63,4.15-7.62,5.14-12.48,3.69l-112.43-76.09Z"/>
</svg>