<?xml version="1.0" encoding="UTF-8"?>
<svg id="_Слой_1" data-name="Слой 1" xmlns="http://www.w3.org/2000/svg" viewBox="0 0 512 512">
  <defs>
    <style>
      .cls-1 {
        fill: #166d39;
      }
    </style>
  </defs>
  <path class="cls-1" d="M409.69,225c-.42-1.44-1.2-2.58-2.35-3.43-1.14-.84-2.16-1.53-3.07-2.07-.9-.54-2.47-.9-4.69-1.08-2.23-.18-4-.3-5.32-.36-1.33-.06-3.55-.09-6.67-.09h-19.84v24.35h17.5c9.98,0,16.23-.42,18.76-1.26,4.21-1.56,6.31-5.17,6.31-10.82,0-2.04-.21-3.79-.63-5.23Z"/>
  <polygon class="cls-1" points="247.62 196.14 234.09 247.37 269.63 247.37 256.1 196.14 247.62 196.14"/>
  <path class="cls-1" d="M461.79,160.66H50.22c-19.46,0-35.23,15.77-35.23,35.23v120.2c0,19.46,15.77,35.23,35.23,35.23h411.57c19.46,0,35.23-15.77,35.23-35.23v-120.2c0-19.46-15.77-35.23-35.23-35.23ZM93.21,314.83l-34.81-127.17h34.99l31.21,118.69h8.48l31.39-118.69h34.99l-34.99,127.17h-71.25ZM287.48,314.83l-9.74-37.16h-51.59l-9.74,37.16h-34.99l34.81-127.17h71.25l34.99,127.17h-34.99ZM446.4,314.83h-34.45v-42.21h-44.19v42.21h-34.45v-127.17h51.95c39.68,0,59.53,11.85,59.53,35.54,0,5.17-1.05,9.56-3.16,13.17-2.1,3.61-5.08,6.4-8.93,8.39-3.85,1.98-7.58,3.43-11.18,4.33-3.61.9-7.76,1.59-12.45,2.07v8.3h19.84c5.53,0,9.83,1.56,12.9,4.69,3.07,3.13,4.6,7.46,4.6,12.99v37.7Z"/>
</svg>