<?xml version="1.0" encoding="UTF-8"?>
<svg id="_Слой_1" data-name="Слой 1" xmlns="http://www.w3.org/2000/svg" viewBox="0 0 512 512">
  <path d="M20.98,250.36c.82-6.86,5.8-16.71,10.4-21.93,14.27-16.19,36.66-17.95,55.03-7.61,13.05-44.86,55.27-77.23,101.72-80.68l303.12,10.22-61.7,78.44-116.76,35.87c-1.5.99-1.86,9.56-2.39,12.18-13.08,65.07-74.59,106.71-140.2,92.08-38.79-8.65-72.81-39.62-83.79-77.86-18.37,10.34-40.76,8.58-55.03-7.61-4.6-5.22-9.58-15.07-10.4-21.93-.31-2.63-.31-8.55,0-11.18ZM190,193.11c-44.46,4.13-70.46,53.96-48.93,93.19,22.75,41.46,82.23,43.97,107.99,4.22,28.89-44.58-6.39-102.31-59.06-97.42ZM59.08,238.57c-18.65,3.18-18.68,31.56,0,34.75,28.05,4.78,28.06-39.53,0-34.75Z"/>
  <path d="M191.58,217.05c52.12-6.22,60,73.84,7.74,78.01-49.88,3.98-57.46-72.07-7.74-78.01Z"/>
</svg>