<?xml version="1.0" encoding="utf-8"?>
<!-- Generator: Adobe Illustrator 24.1.2, SVG Export Plug-In . SVG Version: 6.00 Build 0)  -->
<svg version="1.1" id="Слой_1" xmlns="http://www.w3.org/2000/svg" xmlns:xlink="http://www.w3.org/1999/xlink" x="0px" y="0px"
	 viewBox="0 0 180 86" style="enable-background:new 0 0 610 86;" xml:space="preserve">
<style type="text/css">
	.st0{fill:#FFFFFF;}
</style>
<path class="st0" d="M170.97,1.21c1.31,0,2.33,0.36,3.07,1.08c0.74,0.72,1.1,1.56,1.1,2.52c0,0.8-0.24,1.52-0.74,2.16l-55.79,72.48
	l-0.25-0.96h52.48c1.06,0,1.96,0.32,2.7,0.96c0.74,0.64,1.1,1.44,1.1,2.4c0,0.96-0.37,1.78-1.1,2.46c-0.74,0.68-1.64,1.02-2.7,1.02
	h-58.62c-1.15,0-2.07-0.4-2.76-1.2c-0.7-0.8-1.04-1.64-1.04-2.52c0-0.8,0.25-1.52,0.74-2.16l55.43-71.88l0.86,0.48H115.3
	c-1.06,0-1.96-0.34-2.7-1.02c-0.74-0.68-1.1-1.46-1.1-2.34c0-1.04,0.37-1.88,1.1-2.52c0.74-0.64,1.63-0.96,2.7-0.96H170.97z"/>
<path class="st0" d="M58.88,11.53c-2.1-3.51-4.99-6.27-8.69-8.28c-3.7-2-7.89-3-12.57-3H4.36c-1.07,0-1.94,0.36-2.65,1.1
	S0.67,2.95,0.67,3.93V82.4c0,0.98,0.39,1.85,1.17,2.58c0.77,0.74,1.78,1.11,3.02,1.11c1.07,0,1.92-0.37,2.59-1.11
	c0.66-0.73,0.98-1.59,0.98-2.58V49.55h27.36c1.72,0,3.55,0.2,5.48,0.61c1.93,0.41,3.7,1.19,5.3,2.33c1.59,1.15,2.91,2.73,3.93,4.73
	c0.64,1.25,1.09,2.73,1.32,4.45c-0.11-0.97-0.16-1.95-0.16-2.95c0-3.22,0.59-6.32,1.77-9.31c-0.84-0.8-1.76-1.51-2.74-2.13
	c-1.14-0.73-2.31-1.32-3.52-1.79c2.69-1.04,5.14-2.53,7.35-4.46c2.38-2.08,4.23-4.62,5.54-7.61c1.31-2.98,1.98-6.27,1.98-9.87
	C62.03,19.06,60.97,15.05,58.88,11.53z M51.8,33.42c-1.56,2.82-3.56,5.01-5.98,6.57c-2.42,1.56-5.02,2.45-7.82,2.69H8.43V7.49h28.58
	c5.09,0,9.21,1.53,12.38,4.6c3.16,3.06,4.74,6.92,4.74,11.58C54.14,27.35,53.35,30.6,51.8,33.42z"/>
<path class="st0" d="M112.41,69.25l0.13-0.14c1.17-1.74,2.19-3.58,3.07-5.49c1.9-4.13,3.21-8.35,3.91-12.64
	c0.16-1.19-0.08-2.18-0.7-2.97c-0.64-0.8-1.51-1.19-2.61-1.19c-0.95,0-1.7,0.22-2.25,0.66c-0.56,0.43-0.91,1.05-1.07,1.85
	c-0.63,3.65-1.72,7.25-3.27,10.78c-0.63,1.46-1.36,2.87-2.17,4.2L79.69,36.53c-0.21-0.27-0.42-0.54-0.62-0.81
	c-2.1-2.79-3.8-5.55-5.15-8.29c-1.35-2.74-2.01-5.3-2.01-7.69c0-3.9,1.26-7.05,3.79-9.48c2.52-2.42,6.19-3.63,11.01-3.63
	c4.34,0,7.8,0.8,10.36,2.38c2.56,1.59,4.64,3.55,6.22,5.84c0.23,0.41,0.57,0.74,1.01,1.02c0.43,0.28,0.97,0.42,1.6,0.42
	c1.02,0,1.84-0.34,2.42-1.02c0.6-0.67,0.89-1.37,0.89-2.08c0-0.48-0.08-0.96-0.23-1.43c-0.16-0.48-0.28-0.76-0.36-0.84
	c-1.5-2.94-4.1-5.48-7.81-7.62c-3.71-2.15-8.42-3.22-14.09-3.22c-4.59,0-8.53,0.85-11.85,2.56c-3.31,1.71-5.89,4.05-7.7,7.02
	c-1.81,2.98-2.73,6.34-2.73,10.08c0,0.54,0.02,1.08,0.08,1.62c0.19,2.4,0.84,4.8,1.93,7.21c0.84,1.84,1.86,3.7,3.03,5.6
	c-0.27,0.11-0.53,0.2-0.78,0.32c-3.44,1.4-6.34,3.21-8.7,5.41c-2.8,2.62-4.89,5.55-6.27,8.77c-0.11,0.25-0.21,0.5-0.3,0.76
	c-1.18,2.98-1.77,6.09-1.77,9.31c0,1,0.06,1.98,0.16,2.95c0.02,0.15,0.04,0.3,0.06,0.47c0.44,3.37,1.57,6.6,3.38,9.7
	c2.41,4.13,5.78,7.5,10.13,10.13h0.01c4.34,2.62,9.31,3.93,14.91,3.93c6,0,11.3-0.99,15.87-2.97c4.58-1.99,8.49-4.67,11.73-8.05
	c0.16-0.16,0.32-0.34,0.47-0.5l4.62,4.42l1.91,1.81l1.46,1.4l4.06-4.74L112.41,69.25z M94.35,76.44C90.68,78.14,86.27,79,81.14,79
	c-4.81,0-8.88-1.04-12.2-3.1c-3.31-2.07-5.81-4.71-7.46-7.92c-1.01-1.95-1.71-3.98-2.11-6.08c-0.12-0.59-0.2-1.18-0.26-1.78
	C59.03,59.35,59,58.56,59,57.78c0-4.21,1.26-8.07,3.79-11.56c2.17-2.98,6.16-5.22,10.98-6.65c0.01,0,0.02-0.01,0.04-0.01
	c0.04,0.05,0.07,0.11,0.11,0.15l28.65,28.66l1.16,1.16C101.35,72.07,97.74,74.85,94.35,76.44z"/>
<path class="st0" d="M72.92,39.22l-0.14-0.14c0.01,0,0.02-0.01,0.03-0.01C72.85,39.12,72.88,39.17,72.92,39.22z"/>
</svg>
