<?xml version="1.0" encoding="utf-8"?>
<!-- Generator: Adobe Illustrator 24.1.2, SVG Export Plug-In . SVG Version: 6.00 Build 0)  -->
<svg version="1.1" id="Слой_1" xmlns="http://www.w3.org/2000/svg" xmlns:xlink="http://www.w3.org/1999/xlink" x="0px" y="0px"
	 viewBox="0 0 610 86" style="enable-background:new 0 0 610 86;" xml:space="preserve">
<style type="text/css">
	.st0{fill:#FFFFFF;}
</style>
<path class="st0" d="M170.97,1.21c1.31,0,2.33,0.36,3.07,1.08c0.74,0.72,1.1,1.56,1.1,2.52c0,0.8-0.24,1.52-0.74,2.16l-55.79,72.48
	l-0.25-0.96h52.48c1.06,0,1.96,0.32,2.7,0.96c0.74,0.64,1.1,1.44,1.1,2.4c0,0.96-0.37,1.78-1.1,2.46c-0.74,0.68-1.64,1.02-2.7,1.02
	h-58.62c-1.15,0-2.07-0.4-2.76-1.2c-0.7-0.8-1.04-1.64-1.04-2.52c0-0.8,0.25-1.52,0.74-2.16l55.43-71.88l0.86,0.48H115.3
	c-1.06,0-1.96-0.34-2.7-1.02c-0.74-0.68-1.1-1.46-1.1-2.34c0-1.04,0.37-1.88,1.1-2.52c0.74-0.64,1.63-0.96,2.7-0.96H170.97z"/>
<path class="st0" d="M218.54,0.03c0.57,0,1.16,0.14,1.77,0.43c0.61,0.29,1.12,0.67,1.53,1.16l33.78,50.62l-3.3-0.12l33.9-50.5
	c0.9-1.22,2-1.75,3.31-1.59c0.98,0,1.81,0.35,2.51,1.04c0.69,0.69,1.04,1.57,1.04,2.63v78.26c0,0.98-0.39,1.83-1.16,2.57
	c-0.78,0.73-1.69,1.1-2.75,1.1c-1.06,0-1.96-0.37-2.69-1.1c-0.73-0.73-1.1-1.59-1.1-2.57v-70.8l2.2,0.24L256.6,58.23
	c-0.32,0.48-0.63,0.88-1.16,1.16c-0.53,0.29-1.08,0.43-1.65,0.43c-0.57,0-1.12-0.14-1.65-0.43c-0.53-0.28-0.96-0.67-1.29-1.16
	l-31.09-47.32l2.33-1.59v72.63c0,0.98-0.35,1.83-1.04,2.57c-0.69,0.73-1.57,1.1-2.63,1.1c-1.06,0-1.92-0.37-2.57-1.1
	c-0.65-0.73-0.98-1.59-0.98-2.57V3.7c0-0.9,0.35-1.73,1.04-2.51C216.6,0.42,217.47,0.03,218.54,0.03z"/>
<path class="st0" d="M342.4,85.84c-6.28,0-11.83-1.35-16.65-4.04c-4.82-2.69-8.57-6.45-11.26-11.26
	c-2.69-4.81-4.04-10.44-4.04-16.89c0-6.93,1.37-12.85,4.1-17.75c2.73-4.9,6.28-8.67,10.65-11.32c4.36-2.65,9-3.98,13.89-3.98
	c3.59,0,7.08,0.63,10.47,1.9c3.39,1.27,6.41,3.14,9.06,5.63c2.65,2.49,4.77,5.53,6.36,9.12c1.59,3.59,2.47,7.75,2.63,12.48
	c-0.08,0.98-0.49,1.82-1.22,2.51c-0.73,0.69-1.59,1.04-2.57,1.04h-49.08l-1.47-6.61h48.23l-1.59,1.47V45.7
	c-0.41-3.83-1.67-7.08-3.79-9.73c-2.12-2.65-4.67-4.69-7.65-6.12c-2.98-1.43-6.1-2.14-9.36-2.14c-2.45,0-4.96,0.49-7.53,1.47
	c-2.57,0.98-4.9,2.51-6.98,4.59c-2.08,2.08-3.78,4.73-5.08,7.96c-1.31,3.22-1.96,7.04-1.96,11.44c0,4.82,0.98,9.18,2.94,13.1
	c1.96,3.92,4.79,7.02,8.51,9.3c3.71,2.29,8.14,3.43,13.28,3.43c2.85,0,5.4-0.41,7.65-1.22c2.24-0.81,4.24-1.9,6-3.24
	c1.75-1.35,3.2-2.75,4.34-4.22c0.9-0.73,1.75-1.1,2.57-1.1c0.9,0,1.65,0.33,2.26,0.98c0.61,0.65,0.92,1.39,0.92,2.2
	c0,0.98-0.41,1.84-1.22,2.57c-2.45,2.94-5.63,5.49-9.55,7.65C351.34,84.76,347.05,85.84,342.4,85.84z"/>
<path class="st0" d="M379.24,23.32h28.52c0.98,0,1.79,0.35,2.45,1.04c0.65,0.69,0.98,1.53,0.98,2.51s-0.33,1.8-0.98,2.45
	c-0.65,0.65-1.47,0.98-2.45,0.98h-28.52c-0.98,0-1.82-0.35-2.51-1.04c-0.69-0.69-1.04-1.53-1.04-2.51c0-0.98,0.35-1.79,1.04-2.45
	C377.43,23.65,378.26,23.32,379.24,23.32z M391.85,6.06c1.06,0,1.94,0.37,2.63,1.1c0.69,0.73,1.04,1.59,1.04,2.57v61.44
	c0,2.29,0.31,4,0.92,5.14c0.61,1.14,1.41,1.9,2.39,2.26c0.98,0.37,1.96,0.55,2.94,0.55c0.65,0,1.24-0.1,1.77-0.31
	c0.53-0.2,1.12-0.31,1.78-0.31c0.73,0,1.37,0.29,1.9,0.86c0.53,0.57,0.8,1.31,0.8,2.2c0,1.14-0.65,2.1-1.96,2.88
	c-1.31,0.78-2.86,1.16-4.65,1.16c-0.73,0-1.84-0.06-3.3-0.18c-1.47-0.12-2.98-0.57-4.53-1.35c-1.55-0.77-2.86-2.14-3.92-4.1
	c-1.06-1.96-1.59-4.77-1.59-8.45V9.73c0-0.98,0.37-1.84,1.1-2.57C389.89,6.43,390.79,6.06,391.85,6.06z"/>
<path class="st0" d="M428.62,86c-1.14,0-2.06-0.37-2.75-1.1c-0.69-0.73-1.04-1.59-1.04-2.57V27.49c0-0.98,0.37-1.84,1.1-2.57
	c0.73-0.73,1.63-1.1,2.69-1.1c1.06,0,1.94,0.37,2.63,1.1c0.69,0.73,1.04,1.59,1.04,2.57v18.36l-1.84,0.37
	c0.24-2.85,0.96-5.69,2.14-8.51c1.18-2.81,2.79-5.4,4.84-7.77c2.04-2.37,4.47-4.28,7.28-5.75c2.82-1.47,5.98-2.2,9.49-2.2
	c1.47,0,2.9,0.31,4.28,0.92c1.39,0.61,2.08,1.61,2.08,3c0,1.22-0.33,2.16-0.98,2.81c-0.65,0.65-1.43,0.98-2.33,0.98
	c-0.73,0-1.53-0.2-2.39-0.61c-0.86-0.41-1.98-0.61-3.37-0.61c-2.29,0-4.57,0.67-6.85,2.02c-2.29,1.35-4.37,3.16-6.24,5.45
	c-1.88,2.29-3.37,4.84-4.47,7.65c-1.1,2.81-1.65,5.65-1.65,8.51v30.23c0,0.98-0.37,1.84-1.1,2.57C430.46,85.63,429.6,86,428.62,86z"
	/>
<path class="st0" d="M475.39,14.15c-1.71,0-3-0.39-3.86-1.16c-0.86-0.77-1.28-1.9-1.28-3.37V8.4c0-1.47,0.47-2.59,1.41-3.37
	c0.94-0.77,2.22-1.16,3.86-1.16c1.55,0,2.75,0.39,3.61,1.16c0.86,0.78,1.28,1.9,1.28,3.37v1.22c0,1.47-0.43,2.59-1.28,3.37
	C478.26,13.77,477.02,14.15,475.39,14.15z M479.06,82.33c0,0.98-0.37,1.84-1.1,2.57c-0.73,0.73-1.59,1.1-2.57,1.1
	c-1.14,0-2.04-0.37-2.69-1.1c-0.65-0.73-0.98-1.59-0.98-2.57v-56.3c0-0.98,0.35-1.84,1.04-2.57c0.69-0.73,1.57-1.1,2.63-1.1
	c1.06,0,1.94,0.37,2.63,1.1c0.69,0.73,1.04,1.59,1.04,2.57V82.33z"/>
<path class="st0" d="M525.63,20.76c3.92,0,7.51,0.43,10.77,1.29c3.26,0.86,5.89,2.02,7.89,3.49c2,1.47,3,3.06,3,4.77
	c0,0.82-0.29,1.61-0.86,2.39c-0.57,0.78-1.35,1.16-2.33,1.16c-1.06,0-1.9-0.22-2.51-0.67c-0.61-0.45-1.2-1.02-1.77-1.71
	c-0.57-0.69-1.43-1.29-2.57-1.78c-1.06-0.57-2.59-1.04-4.59-1.41c-2-0.37-4.22-0.55-6.67-0.55c-4.57,0-8.69,1.14-12.36,3.43
	c-3.67,2.29-6.57,5.35-8.69,9.18c-2.12,3.84-3.18,8.16-3.18,12.97c0,4.9,1.02,9.3,3.06,13.22c2.04,3.92,4.85,7,8.45,9.24
	c3.59,2.24,7.79,3.37,12.61,3.37c3.18,0,5.69-0.29,7.53-0.86c1.84-0.57,3.37-1.22,4.59-1.96c1.63-0.9,2.79-1.77,3.49-2.63
	c0.69-0.86,1.61-1.28,2.75-1.28c1.06,0,1.86,0.31,2.39,0.92c0.53,0.61,0.8,1.41,0.8,2.39c0,1.31-0.96,2.75-2.88,4.34
	c-1.92,1.59-4.55,2.98-7.89,4.16c-3.35,1.18-7.22,1.77-11.63,1.77c-6.04,0-11.36-1.43-15.97-4.28c-4.61-2.85-8.2-6.75-10.77-11.69
	c-2.57-4.94-3.86-10.51-3.86-16.71c0-5.96,1.31-11.38,3.92-16.28c2.61-4.9,6.24-8.83,10.89-11.81
	C513.88,22.25,519.34,20.76,525.63,20.76z"/>
<path class="st0" d="M557.94,74.86c-0.65-0.98-0.96-1.94-0.92-2.88c0.04-0.94,0.55-1.69,1.53-2.26c0.65-0.57,1.41-0.81,2.26-0.73
	c0.86,0.08,1.65,0.49,2.39,1.22c2.2,2.86,4.88,5.16,8.02,6.92c3.14,1.75,6.87,2.63,11.2,2.63c2.28,0,4.55-0.39,6.79-1.16
	c2.24-0.77,4.1-1.96,5.57-3.55c1.47-1.59,2.2-3.61,2.2-6.06c0-2.53-0.73-4.55-2.2-6.06c-1.47-1.51-3.37-2.73-5.69-3.67
	c-2.33-0.94-4.83-1.73-7.53-2.39c-2.77-0.73-5.45-1.57-8.02-2.51c-2.57-0.94-4.88-2.12-6.92-3.55c-2.04-1.43-3.65-3.16-4.83-5.2
	c-1.18-2.04-1.78-4.53-1.78-7.47c0-3.43,0.92-6.45,2.75-9.06c1.84-2.61,4.38-4.65,7.65-6.12c3.26-1.47,6.89-2.2,10.89-2.2
	c2.12,0,4.36,0.27,6.73,0.8c2.37,0.53,4.69,1.41,6.98,2.63c2.28,1.22,4.32,2.9,6.12,5.02c0.73,0.73,1.1,1.57,1.1,2.51
	c0,0.94-0.41,1.82-1.22,2.63c-0.65,0.49-1.41,0.71-2.26,0.67c-0.86-0.04-1.57-0.39-2.14-1.04c-1.96-2.2-4.28-3.86-6.98-4.96
	c-2.69-1.1-5.59-1.65-8.69-1.65c-2.37,0-4.59,0.37-6.67,1.1c-2.08,0.73-3.82,1.88-5.2,3.43c-1.39,1.55-2.08,3.59-2.08,6.12
	c0.16,2.37,1,4.28,2.51,5.75c1.51,1.47,3.51,2.69,6,3.67c2.49,0.98,5.28,1.88,8.39,2.69c2.61,0.65,5.12,1.43,7.53,2.33
	c2.41,0.9,4.53,2.02,6.36,3.37s3.31,3.04,4.41,5.08c1.1,2.04,1.65,4.61,1.65,7.71c0,3.59-1,6.69-3,9.3c-2,2.61-4.67,4.61-8.02,6
	c-3.35,1.39-7.06,2.08-11.14,2.08c-4.41,0-8.67-0.86-12.79-2.57C564.78,81.72,561.12,78.86,557.94,74.86z"/>
<path class="st0" d="M619.21-3.35c-0.05,0.05-0.08,0.09-0.13,0.14l-1.16-1.16C618.36-4.02,618.79-3.7,619.21-3.35z"/>
<path class="st0" d="M58.88,11.53c-2.1-3.51-4.99-6.27-8.69-8.28c-3.7-2-7.89-3-12.57-3H4.36c-1.07,0-1.94,0.36-2.65,1.1
	S0.67,2.95,0.67,3.93V82.4c0,0.98,0.39,1.85,1.17,2.58c0.77,0.74,1.78,1.11,3.02,1.11c1.07,0,1.92-0.37,2.59-1.11
	c0.66-0.73,0.98-1.59,0.98-2.58V49.55h27.36c1.72,0,3.55,0.2,5.48,0.61c1.93,0.41,3.7,1.19,5.3,2.33c1.59,1.15,2.91,2.73,3.93,4.73
	c0.64,1.25,1.09,2.73,1.32,4.45c-0.11-0.97-0.16-1.95-0.16-2.95c0-3.22,0.59-6.32,1.77-9.31c-0.84-0.8-1.76-1.51-2.74-2.13
	c-1.14-0.73-2.31-1.32-3.52-1.79c2.69-1.04,5.14-2.53,7.35-4.46c2.38-2.08,4.23-4.62,5.54-7.61c1.31-2.98,1.98-6.27,1.98-9.87
	C62.03,19.06,60.97,15.05,58.88,11.53z M51.8,33.42c-1.56,2.82-3.56,5.01-5.98,6.57c-2.42,1.56-5.02,2.45-7.82,2.69H8.43V7.49h28.58
	c5.09,0,9.21,1.53,12.38,4.6c3.16,3.06,4.74,6.92,4.74,11.58C54.14,27.35,53.35,30.6,51.8,33.42z"/>
<path class="st0" d="M112.41,69.25l0.13-0.14c1.17-1.74,2.19-3.58,3.07-5.49c1.9-4.13,3.21-8.35,3.91-12.64
	c0.16-1.19-0.08-2.18-0.7-2.97c-0.64-0.8-1.51-1.19-2.61-1.19c-0.95,0-1.7,0.22-2.25,0.66c-0.56,0.43-0.91,1.05-1.07,1.85
	c-0.63,3.65-1.72,7.25-3.27,10.78c-0.63,1.46-1.36,2.87-2.17,4.2L79.69,36.53c-0.21-0.27-0.42-0.54-0.62-0.81
	c-2.1-2.79-3.8-5.55-5.15-8.29c-1.35-2.74-2.01-5.3-2.01-7.69c0-3.9,1.26-7.05,3.79-9.48c2.52-2.42,6.19-3.63,11.01-3.63
	c4.34,0,7.8,0.8,10.36,2.38c2.56,1.59,4.64,3.55,6.22,5.84c0.23,0.41,0.57,0.74,1.01,1.02c0.43,0.28,0.97,0.42,1.6,0.42
	c1.02,0,1.84-0.34,2.42-1.02c0.6-0.67,0.89-1.37,0.89-2.08c0-0.48-0.08-0.96-0.23-1.43c-0.16-0.48-0.28-0.76-0.36-0.84
	c-1.5-2.94-4.1-5.48-7.81-7.62c-3.71-2.15-8.42-3.22-14.09-3.22c-4.59,0-8.53,0.85-11.85,2.56c-3.31,1.71-5.89,4.05-7.7,7.02
	c-1.81,2.98-2.73,6.34-2.73,10.08c0,0.54,0.02,1.08,0.08,1.62c0.19,2.4,0.84,4.8,1.93,7.21c0.84,1.84,1.86,3.7,3.03,5.6
	c-0.27,0.11-0.53,0.2-0.78,0.32c-3.44,1.4-6.34,3.21-8.7,5.41c-2.8,2.62-4.89,5.55-6.27,8.77c-0.11,0.25-0.21,0.5-0.3,0.76
	c-1.18,2.98-1.77,6.09-1.77,9.31c0,1,0.06,1.98,0.16,2.95c0.02,0.15,0.04,0.3,0.06,0.47c0.44,3.37,1.57,6.6,3.38,9.7
	c2.41,4.13,5.78,7.5,10.13,10.13h0.01c4.34,2.62,9.31,3.93,14.91,3.93c6,0,11.3-0.99,15.87-2.97c4.58-1.99,8.49-4.67,11.73-8.05
	c0.16-0.16,0.32-0.34,0.47-0.5l4.62,4.42l1.91,1.81l1.46,1.4l4.06-4.74L112.41,69.25z M94.35,76.44C90.68,78.14,86.27,79,81.14,79
	c-4.81,0-8.88-1.04-12.2-3.1c-3.31-2.07-5.81-4.71-7.46-7.92c-1.01-1.95-1.71-3.98-2.11-6.08c-0.12-0.59-0.2-1.18-0.26-1.78
	C59.03,59.35,59,58.56,59,57.78c0-4.21,1.26-8.07,3.79-11.56c2.17-2.98,6.16-5.22,10.98-6.65c0.01,0,0.02-0.01,0.04-0.01
	c0.04,0.05,0.07,0.11,0.11,0.15l28.65,28.66l1.16,1.16C101.35,72.07,97.74,74.85,94.35,76.44z"/>
<path class="st0" d="M72.92,39.22l-0.14-0.14c0.01,0,0.02-0.01,0.03-0.01C72.85,39.12,72.88,39.17,72.92,39.22z"/>
</svg>
